<?xml version="1.0" encoding="utf-8"?>
<!-- Generator: Adobe Illustrator 22.1.0, SVG Export Plug-In . SVG Version: 6.00 Build 0)  -->
<svg version="1.1" xmlns="http://www.w3.org/2000/svg" xmlns:xlink="http://www.w3.org/1999/xlink" x="0px" y="0px"
	 viewBox="0 0 500 500" style="enable-background:new 0 0 500 500;" xml:space="preserve">
<style type="text/css">
	.st0{display:none;}
	.st1{display:inline;}
	.st2{fill:#202228;}
	.st3{fill:#FFFFFF;}
	.st4{fill:#6E7071;}
</style>
<g id="Layer_2" class="st0">
	<g class="st1">
		<rect class="st2" width="500" height="500"/>
	</g>
</g>
<g id="Layer_1">
	<g>
		<path class="st3" d="M421.5,262.3l-45.7-45.7c-3.1-3.1-7.4-4.9-11.7-4.9h-4.2v66.5h66.5V274C426.3,269.6,424.6,265.4,421.5,262.3z
			"/>
	</g>
	<g>
		<path class="st4" d="M322.5,107.3h-55.8c-7.7-13.2-22-22.2-38.4-22.2c-16.4,0-30.7,8.9-38.3,22.2h-55.8c-9.2,0-16.6,7.4-16.6,16.6
			v232.7c0,2.1,0.4,4.1,1.1,6c1.9,4.9,6.1,8.7,11.2,10.1c1.4,0.4,2.8,0.6,4.3,0.6h72V212.6c0-21.4,17.4-38.8,38.8-38.8h94.2v-49.9
			C339.2,114.7,331.7,107.3,322.5,107.3z M228.3,146.1c-9.2,0-16.6-7.4-16.6-16.6s7.4-16.6,16.6-16.6c9.2,0,16.6,7.4,16.6,16.6
			S237.5,146.1,228.3,146.1z"/>
	</g>
	<path class="st3" d="M254,24C136,24,40,120,40,238c0,58.6,23.2,113.3,65.4,154c3.9,3.7,7.9,7.3,11.9,10.7
		c30.1,25,66.3,41.2,104.8,47c10.5,1.6,21.2,2.4,31.9,2.4c73.3,0,140.8-36.9,180.4-98.8C456.4,318.8,468,279,468,238
		C468,120,372,24,254,24z M354.3,300.4c-9.1,0-16.6-7.5-16.6-16.6v-72h-94.2c-9.2,0-16.6,7.4-16.6,16.6v195.8c-0.3,0-0.6-0.1-1-0.1
		c-33.8-5.1-65.7-19.3-92.1-41.3c-3.6-3-7.1-6.1-10.5-9.4C86.3,337.6,65.9,289.5,65.9,238c0-103.7,84.4-188.1,188.1-188.1
		S442.1,134.3,442.1,238c0,21.3-3.6,42.2-10.4,61.9l-46.3,0.4H354.3z"/>
</g>
</svg>
